<mxfile host="app.diagrams.net" modified="2024-04-18T04:22:17.582Z" agent="Mozilla/5.0 (Windows NT 10.0; Win64; x64) AppleWebKit/537.36 (KHTML, like Gecko) Chrome/123.0.0.0 Safari/537.36" etag="JLuXC_Q6o3zvHQZPGl2k" version="24.2.5" type="device">
  <diagram id="R2lEEEUBdFMjLlhIrx00" name="Page-1">
    <mxGraphModel dx="2610" dy="2183" grid="1" gridSize="10" guides="1" tooltips="1" connect="1" arrows="0" fold="1" page="1" pageScale="1" pageWidth="850" pageHeight="1100" math="0" shadow="0" extFonts="Permanent Marker^https://fonts.googleapis.com/css?family=Permanent+Marker">
      <root>
        <mxCell id="0" />
        <mxCell id="1" parent="0" />
        <mxCell id="Ezke2621hh7aN7jEpGSN-1" value="jobs" style="rounded=0;whiteSpace=wrap;html=1;" parent="1" vertex="1">
          <mxGeometry x="1155" y="300" width="100" height="50" as="geometry" />
        </mxCell>
        <mxCell id="Ezke2621hh7aN7jEpGSN-2" value="users" style="rounded=0;whiteSpace=wrap;html=1;" parent="1" vertex="1">
          <mxGeometry x="405" y="290" width="100" height="50" as="geometry" />
        </mxCell>
        <mxCell id="Ezke2621hh7aN7jEpGSN-3" value="categories" style="rounded=0;whiteSpace=wrap;html=1;" parent="1" vertex="1">
          <mxGeometry x="1210" y="630" width="120" height="60" as="geometry" />
        </mxCell>
        <mxCell id="Ezke2621hh7aN7jEpGSN-4" value="saved_jobs" style="rounded=0;whiteSpace=wrap;html=1;" parent="1" vertex="1">
          <mxGeometry x="770" y="460" width="120" height="60" as="geometry" />
        </mxCell>
        <mxCell id="Ezke2621hh7aN7jEpGSN-5" value="job_applications" style="rounded=0;whiteSpace=wrap;html=1;" parent="1" vertex="1">
          <mxGeometry x="720" y="-15" width="120" height="60" as="geometry" />
        </mxCell>
        <mxCell id="Ezke2621hh7aN7jEpGSN-6" value="searches" style="rounded=0;whiteSpace=wrap;html=1;" parent="1" vertex="1">
          <mxGeometry x="190" y="680" width="120" height="60" as="geometry" />
        </mxCell>
        <mxCell id="Ezke2621hh7aN7jEpGSN-7" value="admins" style="rounded=0;whiteSpace=wrap;html=1;" parent="1" vertex="1">
          <mxGeometry x="810" y="820" width="120" height="60" as="geometry" />
        </mxCell>
        <mxCell id="Ezke2621hh7aN7jEpGSN-10" value="id" style="ellipse;whiteSpace=wrap;html=1;align=center;fontStyle=4;" parent="1" vertex="1">
          <mxGeometry x="335" y="210" width="80" height="40" as="geometry" />
        </mxCell>
        <mxCell id="Ezke2621hh7aN7jEpGSN-27" value="" style="edgeStyle=orthogonalEdgeStyle;rounded=0;orthogonalLoop=1;jettySize=auto;html=1;" parent="1" source="Ezke2621hh7aN7jEpGSN-11" target="Ezke2621hh7aN7jEpGSN-2" edge="1">
          <mxGeometry relative="1" as="geometry" />
        </mxCell>
        <mxCell id="Ezke2621hh7aN7jEpGSN-11" value="username" style="ellipse;whiteSpace=wrap;html=1;align=center;" parent="1" vertex="1">
          <mxGeometry x="420" y="210" width="90" height="40" as="geometry" />
        </mxCell>
        <mxCell id="Ezke2621hh7aN7jEpGSN-29" style="edgeStyle=orthogonalEdgeStyle;rounded=0;orthogonalLoop=1;jettySize=auto;html=1;exitX=0;exitY=1;exitDx=0;exitDy=0;entryX=1;entryY=0.5;entryDx=0;entryDy=0;" parent="1" source="Ezke2621hh7aN7jEpGSN-12" target="Ezke2621hh7aN7jEpGSN-2" edge="1">
          <mxGeometry relative="1" as="geometry">
            <Array as="points">
              <mxPoint x="495" y="244" />
              <mxPoint x="495" y="270" />
              <mxPoint x="525" y="270" />
              <mxPoint x="525" y="295" />
              <mxPoint x="505" y="295" />
            </Array>
          </mxGeometry>
        </mxCell>
        <mxCell id="Ezke2621hh7aN7jEpGSN-12" value="email" style="ellipse;shape=doubleEllipse;margin=3;whiteSpace=wrap;html=1;align=center;" parent="1" vertex="1">
          <mxGeometry x="515" y="210" width="90" height="40" as="geometry" />
        </mxCell>
        <mxCell id="Ezke2621hh7aN7jEpGSN-32" value="" style="edgeStyle=orthogonalEdgeStyle;rounded=0;orthogonalLoop=1;jettySize=auto;html=1;" parent="1" source="Ezke2621hh7aN7jEpGSN-13" target="Ezke2621hh7aN7jEpGSN-2" edge="1">
          <mxGeometry relative="1" as="geometry" />
        </mxCell>
        <mxCell id="Ezke2621hh7aN7jEpGSN-145" style="edgeStyle=orthogonalEdgeStyle;rounded=0;orthogonalLoop=1;jettySize=auto;html=1;exitX=0;exitY=0.5;exitDx=0;exitDy=0;entryX=1;entryY=0.75;entryDx=0;entryDy=0;" parent="1" source="Ezke2621hh7aN7jEpGSN-14" target="Ezke2621hh7aN7jEpGSN-5" edge="1">
          <mxGeometry relative="1" as="geometry">
            <Array as="points">
              <mxPoint x="860" y="92" />
              <mxPoint x="860" y="30" />
            </Array>
          </mxGeometry>
        </mxCell>
        <mxCell id="Ezke2621hh7aN7jEpGSN-14" value="cv" style="ellipse;whiteSpace=wrap;html=1;align=center;" parent="1" vertex="1">
          <mxGeometry x="870" y="75" width="60" height="33.75" as="geometry" />
        </mxCell>
        <mxCell id="Ezke2621hh7aN7jEpGSN-41" style="edgeStyle=orthogonalEdgeStyle;rounded=0;orthogonalLoop=1;jettySize=auto;html=1;exitX=1;exitY=0.5;exitDx=0;exitDy=0;entryX=0;entryY=0.25;entryDx=0;entryDy=0;" parent="1" source="Ezke2621hh7aN7jEpGSN-15" target="Ezke2621hh7aN7jEpGSN-2" edge="1">
          <mxGeometry relative="1" as="geometry" />
        </mxCell>
        <mxCell id="Ezke2621hh7aN7jEpGSN-15" value="type" style="ellipse;whiteSpace=wrap;html=1;align=center;" parent="1" vertex="1">
          <mxGeometry x="285" y="270" width="80" height="40" as="geometry" />
        </mxCell>
        <mxCell id="Ezke2621hh7aN7jEpGSN-16" value="title" style="ellipse;whiteSpace=wrap;html=1;align=center;" parent="1" vertex="1">
          <mxGeometry x="285" y="380" width="80" height="40" as="geometry" />
        </mxCell>
        <mxCell id="Ezke2621hh7aN7jEpGSN-37" value="" style="edgeStyle=orthogonalEdgeStyle;rounded=0;orthogonalLoop=1;jettySize=auto;html=1;" parent="1" source="Ezke2621hh7aN7jEpGSN-13" target="Ezke2621hh7aN7jEpGSN-2" edge="1">
          <mxGeometry relative="1" as="geometry" />
        </mxCell>
        <mxCell id="Ezke2621hh7aN7jEpGSN-17" value="bio" style="ellipse;whiteSpace=wrap;html=1;align=center;" parent="1" vertex="1">
          <mxGeometry x="385" y="480" width="80" height="40" as="geometry" />
        </mxCell>
        <mxCell id="Ezke2621hh7aN7jEpGSN-36" style="edgeStyle=orthogonalEdgeStyle;rounded=0;orthogonalLoop=1;jettySize=auto;html=1;exitX=0;exitY=0;exitDx=0;exitDy=0;" parent="1" source="Ezke2621hh7aN7jEpGSN-18" edge="1">
          <mxGeometry relative="1" as="geometry">
            <mxPoint x="485" y="350" as="targetPoint" />
          </mxGeometry>
        </mxCell>
        <mxCell id="Ezke2621hh7aN7jEpGSN-18" value="facebook" style="ellipse;whiteSpace=wrap;html=1;align=center;" parent="1" vertex="1">
          <mxGeometry x="505" y="420" width="80" height="40" as="geometry" />
        </mxCell>
        <mxCell id="Ezke2621hh7aN7jEpGSN-19" value="twitter" style="ellipse;whiteSpace=wrap;html=1;align=center;" parent="1" vertex="1">
          <mxGeometry x="545" y="330" width="80" height="40" as="geometry" />
        </mxCell>
        <mxCell id="Ezke2621hh7aN7jEpGSN-35" style="edgeStyle=orthogonalEdgeStyle;rounded=0;orthogonalLoop=1;jettySize=auto;html=1;exitX=0;exitY=0.5;exitDx=0;exitDy=0;" parent="1" source="Ezke2621hh7aN7jEpGSN-20" edge="1">
          <mxGeometry relative="1" as="geometry">
            <mxPoint x="485" y="340" as="targetPoint" />
          </mxGeometry>
        </mxCell>
        <mxCell id="Ezke2621hh7aN7jEpGSN-20" value="linkedin" style="ellipse;whiteSpace=wrap;html=1;align=center;" parent="1" vertex="1">
          <mxGeometry x="535" y="370" width="90" height="40" as="geometry" />
        </mxCell>
        <mxCell id="Ezke2621hh7aN7jEpGSN-57" style="edgeStyle=orthogonalEdgeStyle;rounded=0;orthogonalLoop=1;jettySize=auto;html=1;exitX=1;exitY=1;exitDx=0;exitDy=0;entryX=0;entryY=0.5;entryDx=0;entryDy=0;" parent="1" source="Ezke2621hh7aN7jEpGSN-21" target="Ezke2621hh7aN7jEpGSN-7" edge="1">
          <mxGeometry relative="1" as="geometry" />
        </mxCell>
        <mxCell id="Ezke2621hh7aN7jEpGSN-21" value="adminname" style="ellipse;whiteSpace=wrap;html=1;align=center;" parent="1" vertex="1">
          <mxGeometry x="710" y="780" width="80" height="40" as="geometry" />
        </mxCell>
        <mxCell id="Ezke2621hh7aN7jEpGSN-31" style="edgeStyle=orthogonalEdgeStyle;rounded=0;orthogonalLoop=1;jettySize=auto;html=1;exitX=0.5;exitY=1;exitDx=0;exitDy=0;" parent="1" source="Ezke2621hh7aN7jEpGSN-13" target="Ezke2621hh7aN7jEpGSN-13" edge="1">
          <mxGeometry relative="1" as="geometry" />
        </mxCell>
        <mxCell id="Ezke2621hh7aN7jEpGSN-34" style="edgeStyle=orthogonalEdgeStyle;rounded=0;orthogonalLoop=1;jettySize=auto;html=1;exitX=0;exitY=0.5;exitDx=0;exitDy=0;entryX=0.82;entryY=1.05;entryDx=0;entryDy=0;entryPerimeter=0;" parent="1" source="Ezke2621hh7aN7jEpGSN-19" target="Ezke2621hh7aN7jEpGSN-2" edge="1">
          <mxGeometry relative="1" as="geometry" />
        </mxCell>
        <mxCell id="Ezke2621hh7aN7jEpGSN-39" style="edgeStyle=orthogonalEdgeStyle;rounded=0;orthogonalLoop=1;jettySize=auto;html=1;exitX=1;exitY=0;exitDx=0;exitDy=0;entryX=0.116;entryY=1.064;entryDx=0;entryDy=0;entryPerimeter=0;" parent="1" source="Ezke2621hh7aN7jEpGSN-16" target="Ezke2621hh7aN7jEpGSN-2" edge="1">
          <mxGeometry relative="1" as="geometry" />
        </mxCell>
        <mxCell id="Ezke2621hh7aN7jEpGSN-42" style="edgeStyle=orthogonalEdgeStyle;rounded=0;orthogonalLoop=1;jettySize=auto;html=1;exitX=1;exitY=1;exitDx=0;exitDy=0;entryX=0.146;entryY=0.057;entryDx=0;entryDy=0;entryPerimeter=0;" parent="1" source="Ezke2621hh7aN7jEpGSN-10" target="Ezke2621hh7aN7jEpGSN-2" edge="1">
          <mxGeometry relative="1" as="geometry" />
        </mxCell>
        <mxCell id="Ezke2621hh7aN7jEpGSN-43" value="id" style="ellipse;whiteSpace=wrap;html=1;align=center;fontStyle=4;" parent="1" vertex="1">
          <mxGeometry x="755" y="410" width="55" height="30" as="geometry" />
        </mxCell>
        <mxCell id="Ezke2621hh7aN7jEpGSN-59" value="" style="edgeStyle=orthogonalEdgeStyle;rounded=0;orthogonalLoop=1;jettySize=auto;html=1;" parent="1" source="Ezke2621hh7aN7jEpGSN-44" target="Ezke2621hh7aN7jEpGSN-7" edge="1">
          <mxGeometry relative="1" as="geometry" />
        </mxCell>
        <mxCell id="Ezke2621hh7aN7jEpGSN-44" value="email" style="ellipse;shape=doubleEllipse;margin=3;whiteSpace=wrap;html=1;align=center;" parent="1" vertex="1">
          <mxGeometry x="880" y="750" width="90" height="40" as="geometry" />
        </mxCell>
        <mxCell id="Ezke2621hh7aN7jEpGSN-62" style="edgeStyle=orthogonalEdgeStyle;rounded=0;orthogonalLoop=1;jettySize=auto;html=1;exitX=0;exitY=1;exitDx=0;exitDy=0;" parent="1" source="Ezke2621hh7aN7jEpGSN-45" target="Ezke2621hh7aN7jEpGSN-7" edge="1">
          <mxGeometry relative="1" as="geometry" />
        </mxCell>
        <mxCell id="Ezke2621hh7aN7jEpGSN-45" value="mypassword" style="ellipse;whiteSpace=wrap;html=1;align=center;" parent="1" vertex="1">
          <mxGeometry x="970" y="790" width="100" height="40" as="geometry" />
        </mxCell>
        <mxCell id="Ezke2621hh7aN7jEpGSN-46" value="created_at" style="ellipse;whiteSpace=wrap;html=1;align=center;" parent="1" vertex="1">
          <mxGeometry x="355" y="430" width="80" height="40" as="geometry" />
        </mxCell>
        <mxCell id="Ezke2621hh7aN7jEpGSN-60" value="" style="edgeStyle=orthogonalEdgeStyle;rounded=0;orthogonalLoop=1;jettySize=auto;html=1;" parent="1" source="Ezke2621hh7aN7jEpGSN-47" target="Ezke2621hh7aN7jEpGSN-7" edge="1">
          <mxGeometry relative="1" as="geometry" />
        </mxCell>
        <mxCell id="Ezke2621hh7aN7jEpGSN-47" value="created_at" style="ellipse;whiteSpace=wrap;html=1;align=center;" parent="1" vertex="1">
          <mxGeometry x="1000" y="850" width="80" height="40" as="geometry" />
        </mxCell>
        <mxCell id="Ezke2621hh7aN7jEpGSN-58" style="edgeStyle=orthogonalEdgeStyle;rounded=0;orthogonalLoop=1;jettySize=auto;html=1;exitX=0.5;exitY=1;exitDx=0;exitDy=0;entryX=0.25;entryY=0;entryDx=0;entryDy=0;" parent="1" source="Ezke2621hh7aN7jEpGSN-48" target="Ezke2621hh7aN7jEpGSN-7" edge="1">
          <mxGeometry relative="1" as="geometry" />
        </mxCell>
        <mxCell id="Ezke2621hh7aN7jEpGSN-48" value="id" style="ellipse;whiteSpace=wrap;html=1;align=center;fontStyle=4;" parent="1" vertex="1">
          <mxGeometry x="750" y="740" width="80" height="40" as="geometry" />
        </mxCell>
        <mxCell id="Ezke2621hh7aN7jEpGSN-49" value="created_at" style="ellipse;whiteSpace=wrap;html=1;align=center;" parent="1" vertex="1">
          <mxGeometry x="265" y="620" width="80" height="40" as="geometry" />
        </mxCell>
        <mxCell id="Ezke2621hh7aN7jEpGSN-56" style="edgeStyle=orthogonalEdgeStyle;rounded=0;orthogonalLoop=1;jettySize=auto;html=1;exitX=0;exitY=1;exitDx=0;exitDy=0;entryX=1;entryY=0.25;entryDx=0;entryDy=0;" parent="1" source="Ezke2621hh7aN7jEpGSN-50" target="Ezke2621hh7aN7jEpGSN-6" edge="1">
          <mxGeometry relative="1" as="geometry" />
        </mxCell>
        <mxCell id="Ezke2621hh7aN7jEpGSN-50" value="keyword" style="ellipse;whiteSpace=wrap;html=1;align=center;" parent="1" vertex="1">
          <mxGeometry x="345" y="660" width="80" height="40" as="geometry" />
        </mxCell>
        <mxCell id="Ezke2621hh7aN7jEpGSN-63" style="edgeStyle=orthogonalEdgeStyle;rounded=0;orthogonalLoop=1;jettySize=auto;html=1;exitX=0;exitY=0;exitDx=0;exitDy=0;entryX=0.25;entryY=1;entryDx=0;entryDy=0;" parent="1" source="Ezke2621hh7aN7jEpGSN-51" target="Ezke2621hh7aN7jEpGSN-3" edge="1">
          <mxGeometry relative="1" as="geometry" />
        </mxCell>
        <mxCell id="Ezke2621hh7aN7jEpGSN-51" value="id" style="ellipse;whiteSpace=wrap;html=1;align=center;fontStyle=4;" parent="1" vertex="1">
          <mxGeometry x="1200" y="710" width="80" height="40" as="geometry" />
        </mxCell>
        <mxCell id="Ezke2621hh7aN7jEpGSN-144" style="edgeStyle=orthogonalEdgeStyle;rounded=0;orthogonalLoop=1;jettySize=auto;html=1;exitX=0;exitY=0.5;exitDx=0;exitDy=0;entryX=1;entryY=1;entryDx=0;entryDy=0;" parent="1" source="Ezke2621hh7aN7jEpGSN-52" target="Ezke2621hh7aN7jEpGSN-5" edge="1">
          <mxGeometry relative="1" as="geometry" />
        </mxCell>
        <mxCell id="Ezke2621hh7aN7jEpGSN-52" value="create_at" style="ellipse;whiteSpace=wrap;html=1;align=center;" parent="1" vertex="1">
          <mxGeometry x="870" y="35" width="60" height="30" as="geometry" />
        </mxCell>
        <mxCell id="Ezke2621hh7aN7jEpGSN-67" style="edgeStyle=orthogonalEdgeStyle;rounded=0;orthogonalLoop=1;jettySize=auto;html=1;exitX=0;exitY=0.5;exitDx=0;exitDy=0;entryX=0.5;entryY=0;entryDx=0;entryDy=0;" parent="1" source="Ezke2621hh7aN7jEpGSN-53" target="Ezke2621hh7aN7jEpGSN-3" edge="1">
          <mxGeometry relative="1" as="geometry" />
        </mxCell>
        <mxCell id="Ezke2621hh7aN7jEpGSN-53" value="name" style="ellipse;whiteSpace=wrap;html=1;align=center;" parent="1" vertex="1">
          <mxGeometry x="1285" y="580" width="75" height="30" as="geometry" />
        </mxCell>
        <mxCell id="Ezke2621hh7aN7jEpGSN-55" style="edgeStyle=orthogonalEdgeStyle;rounded=0;orthogonalLoop=1;jettySize=auto;html=1;exitX=0;exitY=1;exitDx=0;exitDy=0;entryX=0.643;entryY=0.017;entryDx=0;entryDy=0;entryPerimeter=0;" parent="1" source="Ezke2621hh7aN7jEpGSN-49" target="Ezke2621hh7aN7jEpGSN-6" edge="1">
          <mxGeometry relative="1" as="geometry" />
        </mxCell>
        <mxCell id="Ezke2621hh7aN7jEpGSN-68" value="id" style="ellipse;whiteSpace=wrap;html=1;align=center;fontStyle=4;" parent="1" vertex="1">
          <mxGeometry x="180" y="630" width="80" height="40" as="geometry" />
        </mxCell>
        <mxCell id="Ezke2621hh7aN7jEpGSN-69" style="edgeStyle=orthogonalEdgeStyle;rounded=0;orthogonalLoop=1;jettySize=auto;html=1;exitX=0;exitY=1;exitDx=0;exitDy=0;entryX=0.063;entryY=0.029;entryDx=0;entryDy=0;entryPerimeter=0;" parent="1" source="Ezke2621hh7aN7jEpGSN-68" target="Ezke2621hh7aN7jEpGSN-6" edge="1">
          <mxGeometry relative="1" as="geometry" />
        </mxCell>
        <mxCell id="Ezke2621hh7aN7jEpGSN-77" style="edgeStyle=orthogonalEdgeStyle;rounded=0;orthogonalLoop=1;jettySize=auto;html=1;exitX=0.5;exitY=0;exitDx=0;exitDy=0;entryX=0.25;entryY=1;entryDx=0;entryDy=0;" parent="1" source="Ezke2621hh7aN7jEpGSN-70" target="Ezke2621hh7aN7jEpGSN-4" edge="1">
          <mxGeometry relative="1" as="geometry" />
        </mxCell>
        <mxCell id="Ezke2621hh7aN7jEpGSN-70" value="worker_id" style="ellipse;whiteSpace=wrap;html=1;align=center;" parent="1" vertex="1">
          <mxGeometry x="760" y="540" width="70" height="30" as="geometry" />
        </mxCell>
        <mxCell id="Ezke2621hh7aN7jEpGSN-71" value="job_id" style="ellipse;whiteSpace=wrap;html=1;align=center;" parent="1" vertex="1">
          <mxGeometry x="830" y="410" width="60" height="30" as="geometry" />
        </mxCell>
        <mxCell id="Ezke2621hh7aN7jEpGSN-72" value="created_at" style="ellipse;whiteSpace=wrap;html=1;align=center;" parent="1" vertex="1">
          <mxGeometry x="1310" y="720" width="80" height="40" as="geometry" />
        </mxCell>
        <mxCell id="Ezke2621hh7aN7jEpGSN-73" style="edgeStyle=orthogonalEdgeStyle;rounded=0;orthogonalLoop=1;jettySize=auto;html=1;exitX=0;exitY=0;exitDx=0;exitDy=0;entryX=0.835;entryY=1.023;entryDx=0;entryDy=0;entryPerimeter=0;" parent="1" source="Ezke2621hh7aN7jEpGSN-72" target="Ezke2621hh7aN7jEpGSN-3" edge="1">
          <mxGeometry relative="1" as="geometry" />
        </mxCell>
        <mxCell id="Ezke2621hh7aN7jEpGSN-75" style="edgeStyle=orthogonalEdgeStyle;rounded=0;orthogonalLoop=1;jettySize=auto;html=1;exitX=0.5;exitY=1;exitDx=0;exitDy=0;entryX=0.132;entryY=0.023;entryDx=0;entryDy=0;entryPerimeter=0;" parent="1" source="Ezke2621hh7aN7jEpGSN-43" target="Ezke2621hh7aN7jEpGSN-4" edge="1">
          <mxGeometry relative="1" as="geometry" />
        </mxCell>
        <mxCell id="Ezke2621hh7aN7jEpGSN-76" style="edgeStyle=orthogonalEdgeStyle;rounded=0;orthogonalLoop=1;jettySize=auto;html=1;exitX=0;exitY=1;exitDx=0;exitDy=0;entryX=0.608;entryY=0.048;entryDx=0;entryDy=0;entryPerimeter=0;" parent="1" source="Ezke2621hh7aN7jEpGSN-71" target="Ezke2621hh7aN7jEpGSN-4" edge="1">
          <mxGeometry relative="1" as="geometry" />
        </mxCell>
        <mxCell id="Ezke2621hh7aN7jEpGSN-106" style="edgeStyle=orthogonalEdgeStyle;rounded=0;orthogonalLoop=1;jettySize=auto;html=1;exitX=1;exitY=0.5;exitDx=0;exitDy=0;entryX=0;entryY=0;entryDx=0;entryDy=0;" parent="1" source="Ezke2621hh7aN7jEpGSN-79" target="Ezke2621hh7aN7jEpGSN-1" edge="1">
          <mxGeometry relative="1" as="geometry" />
        </mxCell>
        <mxCell id="Ezke2621hh7aN7jEpGSN-79" value="id" style="ellipse;whiteSpace=wrap;html=1;align=center;fontStyle=4;" parent="1" vertex="1">
          <mxGeometry x="1050" y="270" width="60" height="30" as="geometry" />
        </mxCell>
        <mxCell id="Ezke2621hh7aN7jEpGSN-104" style="edgeStyle=orthogonalEdgeStyle;rounded=0;orthogonalLoop=1;jettySize=auto;html=1;exitX=1;exitY=0.5;exitDx=0;exitDy=0;entryX=0;entryY=0;entryDx=0;entryDy=0;" parent="1" source="Ezke2621hh7aN7jEpGSN-80" target="Ezke2621hh7aN7jEpGSN-1" edge="1">
          <mxGeometry relative="1" as="geometry" />
        </mxCell>
        <mxCell id="Ezke2621hh7aN7jEpGSN-80" value="job_type" style="ellipse;whiteSpace=wrap;html=1;align=center;" parent="1" vertex="1">
          <mxGeometry x="1050" y="240" width="60" height="30" as="geometry" />
        </mxCell>
        <mxCell id="Ezke2621hh7aN7jEpGSN-109" value="" style="edgeStyle=orthogonalEdgeStyle;rounded=0;orthogonalLoop=1;jettySize=auto;html=1;" parent="1" source="Ezke2621hh7aN7jEpGSN-81" target="Ezke2621hh7aN7jEpGSN-1" edge="1">
          <mxGeometry relative="1" as="geometry" />
        </mxCell>
        <mxCell id="Ezke2621hh7aN7jEpGSN-81" value="job_region" style="ellipse;whiteSpace=wrap;html=1;align=center;" parent="1" vertex="1">
          <mxGeometry x="1047.5" y="400" width="70" height="30" as="geometry" />
        </mxCell>
        <mxCell id="Ezke2621hh7aN7jEpGSN-82" value="job_title" style="ellipse;whiteSpace=wrap;html=1;align=center;" parent="1" vertex="1">
          <mxGeometry x="880" y="-35" width="60" height="30" as="geometry" />
        </mxCell>
        <mxCell id="Ezke2621hh7aN7jEpGSN-111" style="edgeStyle=orthogonalEdgeStyle;rounded=0;orthogonalLoop=1;jettySize=auto;html=1;exitX=1;exitY=0.5;exitDx=0;exitDy=0;entryX=0;entryY=1;entryDx=0;entryDy=0;" parent="1" source="Ezke2621hh7aN7jEpGSN-83" target="Ezke2621hh7aN7jEpGSN-1" edge="1">
          <mxGeometry relative="1" as="geometry" />
        </mxCell>
        <mxCell id="Ezke2621hh7aN7jEpGSN-83" value="job_category" style="ellipse;whiteSpace=wrap;html=1;align=center;" parent="1" vertex="1">
          <mxGeometry x="1035" y="365" width="90" height="30" as="geometry" />
        </mxCell>
        <mxCell id="Ezke2621hh7aN7jEpGSN-112" style="edgeStyle=orthogonalEdgeStyle;rounded=0;orthogonalLoop=1;jettySize=auto;html=1;exitX=1;exitY=0.5;exitDx=0;exitDy=0;entryX=0;entryY=1;entryDx=0;entryDy=0;" parent="1" source="Ezke2621hh7aN7jEpGSN-85" target="Ezke2621hh7aN7jEpGSN-1" edge="1">
          <mxGeometry relative="1" as="geometry" />
        </mxCell>
        <mxCell id="Ezke2621hh7aN7jEpGSN-85" value="vacancy" style="ellipse;whiteSpace=wrap;html=1;align=center;" parent="1" vertex="1">
          <mxGeometry x="1052.5" y="420" width="55" height="30" as="geometry" />
        </mxCell>
        <mxCell id="Ezke2621hh7aN7jEpGSN-117" style="edgeStyle=orthogonalEdgeStyle;rounded=0;orthogonalLoop=1;jettySize=auto;html=1;exitX=1;exitY=0.5;exitDx=0;exitDy=0;entryX=0;entryY=0;entryDx=0;entryDy=0;" parent="1" source="Ezke2621hh7aN7jEpGSN-86" target="Ezke2621hh7aN7jEpGSN-1" edge="1">
          <mxGeometry relative="1" as="geometry" />
        </mxCell>
        <mxCell id="Ezke2621hh7aN7jEpGSN-86" value="experience" style="ellipse;whiteSpace=wrap;html=1;align=center;" parent="1" vertex="1">
          <mxGeometry x="1050" y="210" width="70" height="30" as="geometry" />
        </mxCell>
        <mxCell id="Ezke2621hh7aN7jEpGSN-118" style="edgeStyle=orthogonalEdgeStyle;rounded=0;orthogonalLoop=1;jettySize=auto;html=1;exitX=1;exitY=0.5;exitDx=0;exitDy=0;entryX=0;entryY=0;entryDx=0;entryDy=0;" parent="1" source="Ezke2621hh7aN7jEpGSN-87" target="Ezke2621hh7aN7jEpGSN-1" edge="1">
          <mxGeometry relative="1" as="geometry" />
        </mxCell>
        <mxCell id="Ezke2621hh7aN7jEpGSN-87" value="salary" style="ellipse;whiteSpace=wrap;html=1;align=center;" parent="1" vertex="1">
          <mxGeometry x="1092.5" y="190" width="60" height="30" as="geometry" />
        </mxCell>
        <mxCell id="Ezke2621hh7aN7jEpGSN-121" style="edgeStyle=orthogonalEdgeStyle;rounded=0;orthogonalLoop=1;jettySize=auto;html=1;exitX=0;exitY=0.5;exitDx=0;exitDy=0;entryX=1;entryY=0.25;entryDx=0;entryDy=0;" parent="1" source="Ezke2621hh7aN7jEpGSN-88" target="Ezke2621hh7aN7jEpGSN-1" edge="1">
          <mxGeometry relative="1" as="geometry" />
        </mxCell>
        <mxCell id="Ezke2621hh7aN7jEpGSN-88" value="status" style="ellipse;whiteSpace=wrap;html=1;align=center;" parent="1" vertex="1">
          <mxGeometry x="1400" y="210" width="60" height="30" as="geometry" />
        </mxCell>
        <mxCell id="Ezke2621hh7aN7jEpGSN-114" style="edgeStyle=orthogonalEdgeStyle;rounded=0;orthogonalLoop=1;jettySize=auto;html=1;exitX=0;exitY=0;exitDx=0;exitDy=0;entryX=0.25;entryY=1;entryDx=0;entryDy=0;" parent="1" source="Ezke2621hh7aN7jEpGSN-90" target="Ezke2621hh7aN7jEpGSN-1" edge="1">
          <mxGeometry relative="1" as="geometry" />
        </mxCell>
        <mxCell id="Ezke2621hh7aN7jEpGSN-90" value="application_deadline" style="ellipse;whiteSpace=wrap;html=1;align=center;" parent="1" vertex="1">
          <mxGeometry x="1440" y="425" width="130" height="30" as="geometry" />
        </mxCell>
        <mxCell id="Ezke2621hh7aN7jEpGSN-126" style="edgeStyle=orthogonalEdgeStyle;rounded=0;orthogonalLoop=1;jettySize=auto;html=1;exitX=0;exitY=0.5;exitDx=0;exitDy=0;entryX=1;entryY=1;entryDx=0;entryDy=0;" parent="1" source="Ezke2621hh7aN7jEpGSN-91" target="Ezke2621hh7aN7jEpGSN-1" edge="1">
          <mxGeometry relative="1" as="geometry" />
        </mxCell>
        <mxCell id="Ezke2621hh7aN7jEpGSN-91" value="responsibilities" style="ellipse;whiteSpace=wrap;html=1;align=center;" parent="1" vertex="1">
          <mxGeometry x="1345" y="365" width="130" height="30" as="geometry" />
        </mxCell>
        <mxCell id="Ezke2621hh7aN7jEpGSN-92" value="job_description" style="ellipse;whiteSpace=wrap;html=1;align=center;" parent="1" vertex="1">
          <mxGeometry x="1440" y="390" width="130" height="30" as="geometry" />
        </mxCell>
        <mxCell id="Ezke2621hh7aN7jEpGSN-125" style="edgeStyle=orthogonalEdgeStyle;rounded=0;orthogonalLoop=1;jettySize=auto;html=1;exitX=0;exitY=0.5;exitDx=0;exitDy=0;entryX=1;entryY=0.75;entryDx=0;entryDy=0;" parent="1" source="Ezke2621hh7aN7jEpGSN-93" target="Ezke2621hh7aN7jEpGSN-1" edge="1">
          <mxGeometry relative="1" as="geometry" />
        </mxCell>
        <mxCell id="Ezke2621hh7aN7jEpGSN-93" value="edcuation_experience" style="ellipse;whiteSpace=wrap;html=1;align=center;" parent="1" vertex="1">
          <mxGeometry x="1345" y="330" width="130" height="30" as="geometry" />
        </mxCell>
        <mxCell id="Ezke2621hh7aN7jEpGSN-123" style="edgeStyle=orthogonalEdgeStyle;rounded=0;orthogonalLoop=1;jettySize=auto;html=1;exitX=0;exitY=0.5;exitDx=0;exitDy=0;entryX=1;entryY=0.5;entryDx=0;entryDy=0;" parent="1" source="Ezke2621hh7aN7jEpGSN-94" target="Ezke2621hh7aN7jEpGSN-1" edge="1">
          <mxGeometry relative="1" as="geometry" />
        </mxCell>
        <mxCell id="Ezke2621hh7aN7jEpGSN-94" value="company_id" style="ellipse;whiteSpace=wrap;html=1;align=center;" parent="1" vertex="1">
          <mxGeometry x="1340" y="270" width="130" height="30" as="geometry" />
        </mxCell>
        <mxCell id="Ezke2621hh7aN7jEpGSN-119" style="edgeStyle=orthogonalEdgeStyle;rounded=0;orthogonalLoop=1;jettySize=auto;html=1;exitX=0.5;exitY=1;exitDx=0;exitDy=0;entryX=0.5;entryY=0;entryDx=0;entryDy=0;" parent="1" source="Ezke2621hh7aN7jEpGSN-95" target="Ezke2621hh7aN7jEpGSN-1" edge="1">
          <mxGeometry relative="1" as="geometry" />
        </mxCell>
        <mxCell id="Ezke2621hh7aN7jEpGSN-95" value="other_benefits" style="ellipse;whiteSpace=wrap;html=1;align=center;" parent="1" vertex="1">
          <mxGeometry x="1210" y="170" width="90" height="30" as="geometry" />
        </mxCell>
        <mxCell id="Ezke2621hh7aN7jEpGSN-122" style="edgeStyle=orthogonalEdgeStyle;rounded=0;orthogonalLoop=1;jettySize=auto;html=1;exitX=0;exitY=0.5;exitDx=0;exitDy=0;entryX=1;entryY=0;entryDx=0;entryDy=0;" parent="1" source="Ezke2621hh7aN7jEpGSN-96" target="Ezke2621hh7aN7jEpGSN-1" edge="1">
          <mxGeometry relative="1" as="geometry">
            <Array as="points">
              <mxPoint x="1345" y="270" />
              <mxPoint x="1255" y="270" />
            </Array>
          </mxGeometry>
        </mxCell>
        <mxCell id="Ezke2621hh7aN7jEpGSN-96" value="company_name" style="ellipse;whiteSpace=wrap;html=1;align=center;" parent="1" vertex="1">
          <mxGeometry x="1345" y="240" width="130" height="30" as="geometry" />
        </mxCell>
        <mxCell id="Ezke2621hh7aN7jEpGSN-120" style="edgeStyle=orthogonalEdgeStyle;rounded=0;orthogonalLoop=1;jettySize=auto;html=1;exitX=0;exitY=1;exitDx=0;exitDy=0;entryX=0.75;entryY=0;entryDx=0;entryDy=0;" parent="1" source="Ezke2621hh7aN7jEpGSN-97" target="Ezke2621hh7aN7jEpGSN-1" edge="1">
          <mxGeometry relative="1" as="geometry">
            <Array as="points">
              <mxPoint x="1260" y="216" />
              <mxPoint x="1260" y="260" />
              <mxPoint x="1230" y="260" />
            </Array>
          </mxGeometry>
        </mxCell>
        <mxCell id="Ezke2621hh7aN7jEpGSN-97" value="company_email" style="ellipse;whiteSpace=wrap;html=1;align=center;" parent="1" vertex="1">
          <mxGeometry x="1300" y="190" width="110" height="30" as="geometry" />
        </mxCell>
        <mxCell id="Ezke2621hh7aN7jEpGSN-124" style="edgeStyle=orthogonalEdgeStyle;rounded=0;orthogonalLoop=1;jettySize=auto;html=1;exitX=0;exitY=0.5;exitDx=0;exitDy=0;entryX=1;entryY=0.25;entryDx=0;entryDy=0;" parent="1" source="Ezke2621hh7aN7jEpGSN-98" target="Ezke2621hh7aN7jEpGSN-1" edge="1">
          <mxGeometry relative="1" as="geometry" />
        </mxCell>
        <mxCell id="Ezke2621hh7aN7jEpGSN-98" value="company_image" style="ellipse;whiteSpace=wrap;html=1;align=center;" parent="1" vertex="1">
          <mxGeometry x="1345" y="300" width="130" height="30" as="geometry" />
        </mxCell>
        <mxCell id="Ezke2621hh7aN7jEpGSN-99" value="gender" style="ellipse;whiteSpace=wrap;html=1;align=center;" parent="1" vertex="1">
          <mxGeometry x="1160" y="200" width="60" height="30" as="geometry" />
        </mxCell>
        <mxCell id="Ezke2621hh7aN7jEpGSN-116" style="edgeStyle=orthogonalEdgeStyle;rounded=0;orthogonalLoop=1;jettySize=auto;html=1;exitX=0;exitY=0.5;exitDx=0;exitDy=0;entryX=1;entryY=0.75;entryDx=0;entryDy=0;" parent="1" source="Ezke2621hh7aN7jEpGSN-100" target="Ezke2621hh7aN7jEpGSN-1" edge="1">
          <mxGeometry relative="1" as="geometry">
            <Array as="points">
              <mxPoint x="1330" y="425" />
              <mxPoint x="1330" y="338" />
            </Array>
          </mxGeometry>
        </mxCell>
        <mxCell id="Ezke2621hh7aN7jEpGSN-100" value="created_at" style="ellipse;whiteSpace=wrap;html=1;align=center;" parent="1" vertex="1">
          <mxGeometry x="1360" y="410" width="80" height="30" as="geometry" />
        </mxCell>
        <mxCell id="Ezke2621hh7aN7jEpGSN-115" style="edgeStyle=orthogonalEdgeStyle;rounded=0;orthogonalLoop=1;jettySize=auto;html=1;exitX=0;exitY=0;exitDx=0;exitDy=0;entryX=0.681;entryY=1.064;entryDx=0;entryDy=0;entryPerimeter=0;" parent="1" source="Ezke2621hh7aN7jEpGSN-92" target="Ezke2621hh7aN7jEpGSN-1" edge="1">
          <mxGeometry relative="1" as="geometry" />
        </mxCell>
        <mxCell id="Ezke2621hh7aN7jEpGSN-127" value="id" style="ellipse;whiteSpace=wrap;html=1;align=center;fontStyle=4;" parent="1" vertex="1">
          <mxGeometry x="702.5" y="-65" width="55" height="30" as="geometry" />
        </mxCell>
        <mxCell id="Ezke2621hh7aN7jEpGSN-128" value="job_id" style="ellipse;whiteSpace=wrap;html=1;align=center;" parent="1" vertex="1">
          <mxGeometry x="760" y="-65" width="60" height="30" as="geometry" />
        </mxCell>
        <mxCell id="Ezke2621hh7aN7jEpGSN-129" value="company_id" style="ellipse;whiteSpace=wrap;html=1;align=center;" parent="1" vertex="1">
          <mxGeometry x="690" y="75" width="90" height="30" as="geometry" />
        </mxCell>
        <mxCell id="Ezke2621hh7aN7jEpGSN-130" value="email" style="ellipse;shape=doubleEllipse;margin=3;whiteSpace=wrap;html=1;align=center;" parent="1" vertex="1">
          <mxGeometry x="825" y="-70" width="65" height="35" as="geometry" />
        </mxCell>
        <mxCell id="Ezke2621hh7aN7jEpGSN-131" value="username" style="ellipse;whiteSpace=wrap;html=1;align=center;" parent="1" vertex="1">
          <mxGeometry x="795" y="67.5" width="55" height="37.5" as="geometry" />
        </mxCell>
        <mxCell id="Ezke2621hh7aN7jEpGSN-133" style="edgeStyle=orthogonalEdgeStyle;rounded=0;orthogonalLoop=1;jettySize=auto;html=1;exitX=1;exitY=0;exitDx=0;exitDy=0;entryX=0;entryY=0.75;entryDx=0;entryDy=0;" parent="1" source="Ezke2621hh7aN7jEpGSN-132" target="Ezke2621hh7aN7jEpGSN-2" edge="1">
          <mxGeometry relative="1" as="geometry" />
        </mxCell>
        <mxCell id="Ezke2621hh7aN7jEpGSN-132" value="cv" style="ellipse;whiteSpace=wrap;html=1;align=center;" parent="1" vertex="1">
          <mxGeometry x="295" y="340" width="90" height="40" as="geometry" />
        </mxCell>
        <mxCell id="Ezke2621hh7aN7jEpGSN-143" value="" style="edgeStyle=orthogonalEdgeStyle;rounded=0;orthogonalLoop=1;jettySize=auto;html=1;" parent="1" source="Ezke2621hh7aN7jEpGSN-134" target="Ezke2621hh7aN7jEpGSN-5" edge="1">
          <mxGeometry relative="1" as="geometry" />
        </mxCell>
        <mxCell id="Ezke2621hh7aN7jEpGSN-134" value="worker_id" style="ellipse;whiteSpace=wrap;html=1;align=center;" parent="1" vertex="1">
          <mxGeometry x="865" width="70" height="30" as="geometry" />
        </mxCell>
        <mxCell id="Ezke2621hh7aN7jEpGSN-136" style="edgeStyle=orthogonalEdgeStyle;rounded=0;orthogonalLoop=1;jettySize=auto;html=1;exitX=1;exitY=0.5;exitDx=0;exitDy=0;entryX=0;entryY=0.75;entryDx=0;entryDy=0;" parent="1" source="Ezke2621hh7aN7jEpGSN-135" target="Ezke2621hh7aN7jEpGSN-1" edge="1">
          <mxGeometry relative="1" as="geometry" />
        </mxCell>
        <mxCell id="Ezke2621hh7aN7jEpGSN-135" value="job_title" style="ellipse;whiteSpace=wrap;html=1;align=center;" parent="1" vertex="1">
          <mxGeometry x="1047.5" y="330" width="60" height="30" as="geometry" />
        </mxCell>
        <mxCell id="Ezke2621hh7aN7jEpGSN-138" style="edgeStyle=orthogonalEdgeStyle;rounded=0;orthogonalLoop=1;jettySize=auto;html=1;exitX=0;exitY=0;exitDx=0;exitDy=0;entryX=0.75;entryY=1;entryDx=0;entryDy=0;" parent="1" source="Ezke2621hh7aN7jEpGSN-137" target="Ezke2621hh7aN7jEpGSN-4" edge="1">
          <mxGeometry relative="1" as="geometry" />
        </mxCell>
        <mxCell id="Ezke2621hh7aN7jEpGSN-137" value="created_at" style="ellipse;whiteSpace=wrap;html=1;align=center;" parent="1" vertex="1">
          <mxGeometry x="855" y="550" width="80" height="30" as="geometry" />
        </mxCell>
        <mxCell id="Ezke2621hh7aN7jEpGSN-139" style="edgeStyle=orthogonalEdgeStyle;rounded=0;orthogonalLoop=1;jettySize=auto;html=1;exitX=0.5;exitY=1;exitDx=0;exitDy=0;entryX=0.1;entryY=0.023;entryDx=0;entryDy=0;entryPerimeter=0;" parent="1" source="Ezke2621hh7aN7jEpGSN-127" target="Ezke2621hh7aN7jEpGSN-5" edge="1">
          <mxGeometry relative="1" as="geometry" />
        </mxCell>
        <mxCell id="Ezke2621hh7aN7jEpGSN-140" style="edgeStyle=orthogonalEdgeStyle;rounded=0;orthogonalLoop=1;jettySize=auto;html=1;exitX=0.5;exitY=1;exitDx=0;exitDy=0;entryX=0.563;entryY=0.023;entryDx=0;entryDy=0;entryPerimeter=0;" parent="1" source="Ezke2621hh7aN7jEpGSN-128" target="Ezke2621hh7aN7jEpGSN-5" edge="1">
          <mxGeometry relative="1" as="geometry" />
        </mxCell>
        <mxCell id="Ezke2621hh7aN7jEpGSN-141" style="edgeStyle=orthogonalEdgeStyle;rounded=0;orthogonalLoop=1;jettySize=auto;html=1;exitX=0;exitY=1;exitDx=0;exitDy=0;entryX=0.847;entryY=0.035;entryDx=0;entryDy=0;entryPerimeter=0;" parent="1" source="Ezke2621hh7aN7jEpGSN-130" target="Ezke2621hh7aN7jEpGSN-5" edge="1">
          <mxGeometry relative="1" as="geometry" />
        </mxCell>
        <mxCell id="Ezke2621hh7aN7jEpGSN-142" style="edgeStyle=orthogonalEdgeStyle;rounded=0;orthogonalLoop=1;jettySize=auto;html=1;exitX=0;exitY=0.5;exitDx=0;exitDy=0;entryX=0.995;entryY=0.393;entryDx=0;entryDy=0;entryPerimeter=0;" parent="1" source="Ezke2621hh7aN7jEpGSN-82" target="Ezke2621hh7aN7jEpGSN-5" edge="1">
          <mxGeometry relative="1" as="geometry" />
        </mxCell>
        <mxCell id="Ezke2621hh7aN7jEpGSN-146" style="edgeStyle=orthogonalEdgeStyle;rounded=0;orthogonalLoop=1;jettySize=auto;html=1;exitX=0.5;exitY=0;exitDx=0;exitDy=0;entryX=0.853;entryY=1.06;entryDx=0;entryDy=0;entryPerimeter=0;" parent="1" source="Ezke2621hh7aN7jEpGSN-131" target="Ezke2621hh7aN7jEpGSN-5" edge="1">
          <mxGeometry relative="1" as="geometry" />
        </mxCell>
        <mxCell id="Ezke2621hh7aN7jEpGSN-148" style="edgeStyle=orthogonalEdgeStyle;rounded=0;orthogonalLoop=1;jettySize=auto;html=1;exitX=0.5;exitY=0;exitDx=0;exitDy=0;entryX=0.149;entryY=0.961;entryDx=0;entryDy=0;entryPerimeter=0;" parent="1" source="Ezke2621hh7aN7jEpGSN-129" target="Ezke2621hh7aN7jEpGSN-5" edge="1">
          <mxGeometry relative="1" as="geometry" />
        </mxCell>
        <mxCell id="Ezke2621hh7aN7jEpGSN-150" value="saved_jobs" style="shape=rhombus;perimeter=rhombusPerimeter;whiteSpace=wrap;html=1;align=center;" parent="1" vertex="1">
          <mxGeometry x="755" y="285" width="120" height="60" as="geometry" />
        </mxCell>
        <mxCell id="Ezke2621hh7aN7jEpGSN-152" value="" style="edgeStyle=orthogonalEdgeStyle;rounded=0;orthogonalLoop=1;jettySize=auto;html=1;" parent="1" source="Ezke2621hh7aN7jEpGSN-17" target="Ezke2621hh7aN7jEpGSN-13" edge="1">
          <mxGeometry relative="1" as="geometry">
            <mxPoint x="465" y="440" as="sourcePoint" />
            <mxPoint x="455" y="340" as="targetPoint" />
          </mxGeometry>
        </mxCell>
        <mxCell id="Ezke2621hh7aN7jEpGSN-13" value="mypassword" style="ellipse;whiteSpace=wrap;html=1;align=center;" parent="1" vertex="1">
          <mxGeometry x="380" y="390" width="100" height="40" as="geometry" />
        </mxCell>
        <mxCell id="Ezke2621hh7aN7jEpGSN-159" value="" style="endArrow=none;html=1;rounded=0;labelBackgroundColor=default;strokeColor=default;align=center;verticalAlign=middle;fontFamily=Helvetica;fontSize=11;fontColor=default;shape=connector;edgeStyle=orthogonalEdgeStyle;entryX=0;entryY=0.5;entryDx=0;entryDy=0;exitX=1;exitY=0.5;exitDx=0;exitDy=0;" parent="1" source="Ezke2621hh7aN7jEpGSN-2" target="Ezke2621hh7aN7jEpGSN-150" edge="1">
          <mxGeometry relative="1" as="geometry">
            <mxPoint x="565" y="314.28999999999996" as="sourcePoint" />
            <mxPoint x="725" y="314.28999999999996" as="targetPoint" />
          </mxGeometry>
        </mxCell>
        <mxCell id="Ezke2621hh7aN7jEpGSN-160" value="" style="endArrow=none;html=1;rounded=0;labelBackgroundColor=default;strokeColor=default;align=center;verticalAlign=middle;fontFamily=Helvetica;fontSize=11;fontColor=default;shape=connector;edgeStyle=orthogonalEdgeStyle;entryX=0;entryY=0.25;entryDx=0;entryDy=0;exitX=1;exitY=0.5;exitDx=0;exitDy=0;" parent="1" target="Ezke2621hh7aN7jEpGSN-1" edge="1">
          <mxGeometry relative="1" as="geometry">
            <mxPoint x="875" y="314.28999999999996" as="sourcePoint" />
            <mxPoint x="1125" y="314.28999999999996" as="targetPoint" />
          </mxGeometry>
        </mxCell>
        <mxCell id="Ezke2621hh7aN7jEpGSN-162" value="apply" style="shape=rhombus;perimeter=rhombusPerimeter;whiteSpace=wrap;html=1;align=center;" parent="1" vertex="1">
          <mxGeometry x="759.45" y="130" width="120" height="60" as="geometry" />
        </mxCell>
        <mxCell id="Ezke2621hh7aN7jEpGSN-163" value="" style="endArrow=none;html=1;rounded=0;labelBackgroundColor=default;strokeColor=default;align=center;verticalAlign=middle;fontFamily=Helvetica;fontSize=11;fontColor=default;shape=connector;edgeStyle=orthogonalEdgeStyle;entryX=0;entryY=0.5;entryDx=0;entryDy=0;" parent="1" target="Ezke2621hh7aN7jEpGSN-162" edge="1">
          <mxGeometry relative="1" as="geometry">
            <mxPoint x="509" y="320" as="sourcePoint" />
            <mxPoint x="729.45" y="159.28999999999996" as="targetPoint" />
          </mxGeometry>
        </mxCell>
        <mxCell id="Ezke2621hh7aN7jEpGSN-164" value="" style="endArrow=none;html=1;rounded=0;labelBackgroundColor=default;strokeColor=default;align=center;verticalAlign=middle;fontFamily=Helvetica;fontSize=11;fontColor=default;shape=connector;edgeStyle=orthogonalEdgeStyle;entryX=0;entryY=0.25;entryDx=0;entryDy=0;exitX=1;exitY=0.5;exitDx=0;exitDy=0;" parent="1" target="Ezke2621hh7aN7jEpGSN-1" edge="1">
          <mxGeometry relative="1" as="geometry">
            <mxPoint x="879.45" y="159.28999999999996" as="sourcePoint" />
            <mxPoint x="1159.45" y="158" as="targetPoint" />
          </mxGeometry>
        </mxCell>
        <mxCell id="Ezke2621hh7aN7jEpGSN-167" style="edgeStyle=orthogonalEdgeStyle;shape=connector;rounded=0;orthogonalLoop=1;jettySize=auto;html=1;exitX=0;exitY=0.5;exitDx=0;exitDy=0;entryX=0.5;entryY=1;entryDx=0;entryDy=0;labelBackgroundColor=default;strokeColor=default;align=center;verticalAlign=middle;fontFamily=Helvetica;fontSize=11;fontColor=default;startArrow=none;startFill=0;endArrow=classic;" parent="1" source="Ezke2621hh7aN7jEpGSN-166" target="Ezke2621hh7aN7jEpGSN-1" edge="1">
          <mxGeometry relative="1" as="geometry" />
        </mxCell>
        <mxCell id="Ezke2621hh7aN7jEpGSN-168" style="edgeStyle=orthogonalEdgeStyle;shape=connector;rounded=0;orthogonalLoop=1;jettySize=auto;html=1;exitX=1;exitY=0.5;exitDx=0;exitDy=0;entryX=0.25;entryY=0;entryDx=0;entryDy=0;labelBackgroundColor=default;strokeColor=default;align=center;verticalAlign=middle;fontFamily=Helvetica;fontSize=11;fontColor=default;startArrow=none;startFill=0;endArrow=classic;" parent="1" source="Ezke2621hh7aN7jEpGSN-166" target="Ezke2621hh7aN7jEpGSN-3" edge="1">
          <mxGeometry relative="1" as="geometry" />
        </mxCell>
        <mxCell id="Ezke2621hh7aN7jEpGSN-166" value="divides" style="shape=rhombus;perimeter=rhombusPerimeter;whiteSpace=wrap;html=1;align=center;rotation=75;" parent="1" vertex="1">
          <mxGeometry x="1185" y="491.46" width="110" height="50" as="geometry" />
        </mxCell>
        <mxCell id="k0a0xqbO0nKVwPX-qdek-2" style="edgeStyle=orthogonalEdgeStyle;rounded=0;orthogonalLoop=1;jettySize=auto;html=1;exitX=1;exitY=0.5;exitDx=0;exitDy=0;entryX=0.25;entryY=0;entryDx=0;entryDy=0;" edge="1" parent="1" source="k0a0xqbO0nKVwPX-qdek-1" target="Ezke2621hh7aN7jEpGSN-7">
          <mxGeometry relative="1" as="geometry" />
        </mxCell>
        <mxCell id="k0a0xqbO0nKVwPX-qdek-3" style="edgeStyle=orthogonalEdgeStyle;rounded=0;orthogonalLoop=1;jettySize=auto;html=1;exitX=0;exitY=0.5;exitDx=0;exitDy=0;entryX=0.75;entryY=1;entryDx=0;entryDy=0;" edge="1" parent="1" source="k0a0xqbO0nKVwPX-qdek-1" target="Ezke2621hh7aN7jEpGSN-2">
          <mxGeometry relative="1" as="geometry" />
        </mxCell>
        <mxCell id="k0a0xqbO0nKVwPX-qdek-1" value="information" style="shape=rhombus;perimeter=rhombusPerimeter;whiteSpace=wrap;html=1;align=center;rotation=60;" vertex="1" parent="1">
          <mxGeometry x="640.0000000000001" y="640" width="110" height="50" as="geometry" />
        </mxCell>
        <mxCell id="k0a0xqbO0nKVwPX-qdek-6" style="edgeStyle=orthogonalEdgeStyle;rounded=0;orthogonalLoop=1;jettySize=auto;html=1;exitX=1;exitY=0.5;exitDx=0;exitDy=0;entryX=0.5;entryY=1;entryDx=0;entryDy=0;" edge="1" parent="1" source="k0a0xqbO0nKVwPX-qdek-4" target="Ezke2621hh7aN7jEpGSN-1">
          <mxGeometry relative="1" as="geometry" />
        </mxCell>
        <mxCell id="k0a0xqbO0nKVwPX-qdek-7" style="edgeStyle=orthogonalEdgeStyle;rounded=0;orthogonalLoop=1;jettySize=auto;html=1;exitX=0;exitY=0.5;exitDx=0;exitDy=0;" edge="1" parent="1" source="k0a0xqbO0nKVwPX-qdek-4" target="Ezke2621hh7aN7jEpGSN-7">
          <mxGeometry relative="1" as="geometry" />
        </mxCell>
        <mxCell id="k0a0xqbO0nKVwPX-qdek-4" value="verify&lt;div&gt;&lt;br&gt;&lt;/div&gt;" style="shape=rhombus;perimeter=rhombusPerimeter;whiteSpace=wrap;html=1;align=center;rotation=-53;" vertex="1" parent="1">
          <mxGeometry x="985.0000000000001" y="620" width="110" height="50" as="geometry" />
        </mxCell>
        <mxCell id="k0a0xqbO0nKVwPX-qdek-9" style="edgeStyle=orthogonalEdgeStyle;rounded=0;orthogonalLoop=1;jettySize=auto;html=1;exitX=1;exitY=0.5;exitDx=0;exitDy=0;entryX=0.5;entryY=1;entryDx=0;entryDy=0;" edge="1" parent="1" source="k0a0xqbO0nKVwPX-qdek-8" target="Ezke2621hh7aN7jEpGSN-2">
          <mxGeometry relative="1" as="geometry" />
        </mxCell>
        <mxCell id="k0a0xqbO0nKVwPX-qdek-8" value="searchunng" style="shape=rhombus;perimeter=rhombusPerimeter;whiteSpace=wrap;html=1;align=center;rotation=-65;" vertex="1" parent="1">
          <mxGeometry x="235.0000000000001" y="500" width="110" height="50" as="geometry" />
        </mxCell>
        <mxCell id="k0a0xqbO0nKVwPX-qdek-10" style="edgeStyle=orthogonalEdgeStyle;rounded=0;orthogonalLoop=1;jettySize=auto;html=1;exitX=0;exitY=0.5;exitDx=0;exitDy=0;entryX=0.637;entryY=0;entryDx=0;entryDy=0;entryPerimeter=0;" edge="1" parent="1" source="k0a0xqbO0nKVwPX-qdek-8" target="Ezke2621hh7aN7jEpGSN-6">
          <mxGeometry relative="1" as="geometry" />
        </mxCell>
      </root>
    </mxGraphModel>
  </diagram>
</mxfile>
